# xmcd
#
# Track frame offsets:
#	150
#	15875
#	37087
#	52980
#	81377
#	96940
#	129195
#	146765
#	159400
#	175477
#	193520
#	208555
#
# Disc length: 3052 seconds
#
# Revision: 1
# Processed by: cddbd v1.4PL0 Copyright (c) Steve Scherf et al.
# Submitted via: audiograbber 1.81.03
#
DISCID=9c0bea0c
DTITLE=Reels - Bare-Bone
DYEAR=1999
DGENRE=Blues
TTITLE0=Jet Black Ruby Red
TTITLE1=Who's Been Talkin'
TTITLE2=Me and My Baby
TTITLE3=Movin' Up to Malibu
TTITLE4=Baby Don't Worry
TTITLE5=Soul Blue
TTITLE6=I Want You
TTITLE7=Everybody's Got the Blues
TTITLE8=Early in the Evening
TTITLE9=Walkin' Blues
TTITLE10=Hold On
TTITLE11=Baby, Baby
EXTD=
EXTT0=
EXTT1=
EXTT2=
EXTT3=
EXTT4=
EXTT5=
EXTT6=
EXTT7=
EXTT8=
EXTT9=
EXTT10=
EXTT11=
PLAYORDER=
